<?xml version="1.0" encoding="utf-8"?>
<!-- Generator: Adobe Illustrator 19.0.0, SVG Export Plug-In . SVG Version: 6.00 Build 0)  -->
<!DOCTYPE svg PUBLIC "-//W3C//DTD SVG 1.1//EN" "http://www.w3.org/Graphics/SVG/1.1/DTD/svg11.dtd">
<svg version="1.1" id="Calque_1" xmlns="http://www.w3.org/2000/svg" xmlns:xlink="http://www.w3.org/1999/xlink" x="0px" y="0px"
	 viewBox="0 0 40 40" enable-background="new 0 0 40 40" xml:space="preserve">
<g id="XMLID_1_">
	<path id="XMLID_3_" fill="#929AAA" d="M15.9,29.4c-0.1,0-0.3,0-0.3-0.1l-6.4-6.4C9.1,22.8,9,22.6,9,22.5s0.1-0.3,0.1-0.3l3.2-3.2
		c0.2-0.2,0.5-0.2,0.7,0l2.8,2.8l11.1-11c0.2-0.2,0.5-0.2,0.7,0l3.2,3.2c0.1,0.1,0.1,0.2,0.1,0.4c0,0.1-0.1,0.3-0.1,0.4L16.2,29.2
		C16.1,29.3,16,29.4,15.9,29.4z M10.2,22.5l5.7,5.7l13.9-13.9l-2.5-2.5l-11.1,11c-0.2,0.2-0.5,0.2-0.7,0L12.7,20L10.2,22.5z"/>
</g>
</svg>
