<?xml version="1.0" encoding="utf-8"?>
<!-- Generator: Adobe Illustrator 19.0.0, SVG Export Plug-In . SVG Version: 6.00 Build 0)  -->
<!DOCTYPE svg PUBLIC "-//W3C//DTD SVG 1.1//EN" "http://www.w3.org/Graphics/SVG/1.1/DTD/svg11.dtd">
<svg version="1.1" id="Calque_1" xmlns="http://www.w3.org/2000/svg" xmlns:xlink="http://www.w3.org/1999/xlink" x="0px" y="0px"
	 viewBox="0 0 40 40" enable-background="new 0 0 40 40" xml:space="preserve">
<g>
	<path id="XMLID_12_" fill="#FFFFFF" d="M34,31.1H6c-2,0-3.5-1.5-3.5-3.5V12.4c0-2,1.5-3.5,3.5-3.5h28c2,0,3.5,1.5,3.5,3.5v15.2
		C37.5,29.5,36,31.1,34,31.1z M3.7,15.9v11.7c0,1.3,1,2.3,2.3,2.3h28c1.3,0,2.3-1,2.3-2.3V15.9H3.7z M3.7,14.8h32.7v-2.3
		c0-1.3-1-2.3-2.3-2.3H6c-1.3,0-2.3,1-2.3,2.3V14.8z M12.4,24.1H7.8c-0.3,0-0.6-0.3-0.6-0.6s0.3-0.6,0.6-0.6h4.7
		c0.3,0,0.6,0.3,0.6,0.6S12.7,24.1,12.4,24.1z M32.2,20.6h-5.8c-0.3,0-0.6-0.3-0.6-0.6s0.3-0.6,0.6-0.6h5.8c0.3,0,0.6,0.3,0.6,0.6
		S32.6,20.6,32.2,20.6z M19.4,20.6H7.8c-0.3,0-0.6-0.3-0.6-0.6s0.3-0.6,0.6-0.6h11.7c0.3,0,0.6,0.3,0.6,0.6S19.7,20.6,19.4,20.6z"/>
</g>
</svg>
